<?xml version="1.0" encoding="UTF-8"?>
<!DOCTYPE svg PUBLIC "-//W3C//DTD SVG 1.1//EN" "http://www.w3.org/Graphics/SVG/1.1/DTD/svg11.dtd">
<svg xmlns="http://www.w3.org/2000/svg" version="1.1" width="512px" height="512px" style="shape-rendering:geometricPrecision; text-rendering:geometricPrecision; image-rendering:optimizeQuality; fill-rule:evenodd; clip-rule:evenodd" xmlns:xlink="http://www.w3.org/1999/xlink">
<g><path style="opacity:0.998" fill="#464b63" d="M 441.5,24.5 C 455.504,24.3334 469.504,24.5001 483.5,25C 486.306,26.3051 487.14,28.4718 486,31.5C 434.5,87.6667 383,143.833 331.5,200C 373.833,200.333 416.167,200.667 458.5,201C 459.667,201.5 460.5,202.333 461,203.5C 461.83,288.874 461.664,374.207 460.5,459.5C 459.975,460.192 459.308,460.692 458.5,461C 336.167,461.333 213.833,461.667 91.5,462C 84.1425,470.356 76.4758,478.356 68.5,486C 54.073,486.965 39.7396,486.632 25.5,485C 24.4238,483.274 24.2571,481.441 25,479.5C 76.5,423.333 128,367.167 179.5,311C 137.167,310.667 94.8333,310.333 52.5,310C 51.3333,309.5 50.5,308.667 50,307.5C 49.1695,222.126 49.3362,136.793 50.5,51.5C 51.0253,50.8076 51.6919,50.3076 52.5,50C 174.833,49.6667 297.167,49.3333 419.5,49C 427.041,40.9625 434.374,32.7959 441.5,24.5 Z"/></g>
<g><path style="opacity:1" fill="#6d4e5f" d="M 445.5,33.5 C 454.342,32.1782 463.342,32.1782 472.5,33.5C 472.376,34.1067 472.043,34.44 471.5,34.5C 463.016,33.507 454.349,33.1736 445.5,33.5 Z"/></g>
<g><path style="opacity:1" fill="#ba5557" d="M 445.5,33.5 C 454.349,33.1736 463.016,33.507 471.5,34.5C 336.195,182.141 200.862,329.807 65.5,477.5C 56.6506,477.826 47.9839,477.493 39.5,476.5C 174.833,328.833 310.167,181.167 445.5,33.5 Z"/></g>
<g><path style="opacity:1" fill="#e0e1e9" d="M 74.5,58.5 C 74.5,63.8333 74.5,69.1667 74.5,74.5C 69.1667,74.5 63.8333,74.5 58.5,74.5C 58.5,69.1667 58.5,63.8333 58.5,58.5C 63.8333,58.5 69.1667,58.5 74.5,58.5 Z"/></g>
<g><path style="opacity:1" fill="#dedee7" d="M 83.5,58.5 C 89.1667,58.5 94.8333,58.5 100.5,58.5C 100.5,64.1667 100.5,69.8333 100.5,75.5C 94.8333,75.5 89.1667,75.5 83.5,75.5C 83.5,69.8333 83.5,64.1667 83.5,58.5 Z"/></g>
<g><path style="opacity:1" fill="#dddde6" d="M 108.5,58.5 C 114.167,58.5 119.833,58.5 125.5,58.5C 125.5,64.1667 125.5,69.8333 125.5,75.5C 119.833,75.5 114.167,75.5 108.5,75.5C 108.5,69.8333 108.5,64.1667 108.5,58.5 Z"/></g>
<g><path style="opacity:1" fill="#e0e0e9" d="M 134.5,58.5 C 220.167,58.5 305.833,58.5 391.5,58.5C 387.206,64.1295 382.539,69.4628 377.5,74.5C 296.5,74.5 215.5,74.5 134.5,74.5C 134.5,69.1667 134.5,63.8333 134.5,58.5 Z"/></g>
<g><path style="opacity:1" fill="#c2c3cc" d="M 391.5,58.5 C 398.175,58.3337 404.842,58.5004 411.5,59C 406.369,64.1455 401.369,69.3122 396.5,74.5C 390.167,74.5 383.833,74.5 377.5,74.5C 382.539,69.4628 387.206,64.1295 391.5,58.5 Z"/></g>
<g><path style="opacity:1" fill="#b7b8c6" d="M 74.5,58.5 C 75.4889,63.9753 75.8222,69.642 75.5,75.5C 69.642,75.8222 63.9753,75.4889 58.5,74.5C 63.8333,74.5 69.1667,74.5 74.5,74.5C 74.5,69.1667 74.5,63.8333 74.5,58.5 Z"/></g>
<g><path style="opacity:1" fill="#abadbc" d="M 134.5,58.5 C 134.5,63.8333 134.5,69.1667 134.5,74.5C 215.5,74.5 296.5,74.5 377.5,74.5C 383.833,74.5 390.167,74.5 396.5,74.5C 309.002,75.4994 221.335,75.8327 133.5,75.5C 133.178,69.642 133.511,63.9753 134.5,58.5 Z"/></g>
<g><path style="opacity:1" fill="#fbbb68" d="M 368.5,83.5 C 356.167,97.5 343.833,111.5 331.5,125.5C 288.832,125.333 246.165,125.5 203.5,126C 201.604,127.808 201.104,129.975 202,132.5C 202.671,133.252 203.504,133.586 204.5,133.5C 243.335,134.167 282.335,134.833 321.5,135.5C 316.771,140.224 312.437,145.224 308.5,150.5C 273.498,150.333 238.498,150.5 203.5,151C 201.604,152.808 201.104,154.975 202,157.5C 202.671,158.252 203.504,158.586 204.5,158.5C 235.997,159.332 267.664,159.832 299.5,160C 294.466,164.699 289.8,169.699 285.5,175C 257.997,175.168 230.664,175.668 203.5,176.5C 202.053,177.134 201.387,178.301 201.5,180C 201.387,181.699 202.053,182.866 203.5,183.5C 227.661,184.498 251.994,184.831 276.5,184.5C 271.671,189.497 267.004,194.664 262.5,200C 242.996,200.168 223.662,200.668 204.5,201.5C 202.278,201.559 201.278,202.725 201.5,205C 201.387,206.699 202.053,207.866 203.5,208.5C 219.992,209.497 236.658,209.83 253.5,209.5C 248.671,214.497 244.004,219.664 239.5,225C 227.659,225.169 215.993,225.669 204.5,226.5C 202.278,226.559 201.278,227.725 201.5,230C 201.439,231.711 202.106,233.044 203.5,234C 212.494,234.5 221.494,234.666 230.5,234.5C 225.265,239.979 220.265,245.646 215.5,251.5C 211.486,251.334 207.486,251.501 203.5,252C 200.179,256.836 201.512,259.336 207.5,259.5C 195.203,273.799 182.536,287.799 169.5,301.5C 132.5,301.5 95.5,301.5 58.5,301.5C 58.5,228.833 58.5,156.167 58.5,83.5C 161.833,83.5 265.167,83.5 368.5,83.5 Z"/></g>
<g><path style="opacity:1" fill="#d9a25c" d="M 368.5,83.5 C 375.175,83.3337 381.842,83.5004 388.5,84C 376.201,97.9674 363.534,111.634 350.5,125C 344.175,125.5 337.842,125.666 331.5,125.5C 343.833,111.5 356.167,97.5 368.5,83.5 Z"/></g>
<g><path style="opacity:1" fill="#4b4e63" d="M 126.5,125.5 C 131.948,124.975 136.115,126.975 139,131.5C 149.147,170.755 158.98,210.088 168.5,249.5C 166.949,257.213 162.282,260.38 154.5,259C 152,257.833 150.167,256 149,253.5C 147.321,246.451 145.488,239.451 143.5,232.5C 134.19,231.502 124.857,231.168 115.5,231.5C 114.142,239.266 112.309,246.932 110,254.5C 104.591,260.574 98.9248,260.907 93,255.5C 91.9944,253.466 91.4944,251.3 91.5,249C 100.604,210.083 110.104,171.249 120,132.5C 121.694,129.642 123.861,127.309 126.5,125.5 Z"/></g>
<g><path style="opacity:1" fill="#eab068" d="M 128.5,133.5 C 130.017,133.511 131.184,134.177 132,135.5C 141.422,173.354 150.922,211.188 160.5,249C 159.968,251.02 158.635,251.853 156.5,251.5C 154.829,241.973 152.163,232.807 148.5,224C 135.833,223.333 123.167,223.333 110.5,224C 107.464,232.637 104.964,241.471 103,250.5C 101.989,251.337 100.822,251.67 99.5,251.5C 108.227,211.925 117.894,172.592 128.5,133.5 Z"/></g>
<g><path style="opacity:1" fill="#d5a15e" d="M 204.5,133.5 C 250.501,133.333 296.501,133.5 342.5,134C 337.867,139.635 332.867,144.968 327.5,150C 321.175,150.5 314.842,150.666 308.5,150.5C 312.437,145.224 316.771,140.224 321.5,135.5C 282.335,134.833 243.335,134.167 204.5,133.5 Z"/></g>
<g><path style="opacity:1" fill="#484d63" d="M 127.5,156.5 C 130.808,155.974 132.974,157.307 134,160.5C 138.5,178.5 143,196.5 147.5,214.5C 147.471,216.029 146.804,217.196 145.5,218C 134.59,218.82 123.757,218.653 113,217.5C 112.333,215.5 112.333,213.5 113,211.5C 117.388,192.941 122.222,174.608 127.5,156.5 Z"/></g>
<g><path style="opacity:1" fill="#c9995f" d="M 204.5,158.5 C 242.835,158.333 281.168,158.5 319.5,159C 314.685,164.65 309.685,170.15 304.5,175.5C 270.84,176.5 237.173,176.833 203.5,176.5C 230.664,175.668 257.997,175.168 285.5,175C 289.8,169.699 294.466,164.699 299.5,160C 267.664,159.832 235.997,159.332 204.5,158.5 Z"/></g>
<g><path style="opacity:1" fill="#f1b568" d="M 137.5,209.5 C 132.36,210.488 127.026,210.821 121.5,210.5C 123.561,199.255 126.394,188.255 130,177.5C 132.819,188.11 135.319,198.776 137.5,209.5 Z"/></g>
<g><path style="opacity:1" fill="#8b7664" d="M 203.5,183.5 C 234.507,183.167 265.507,183.5 296.5,184.5C 296.376,185.107 296.043,185.44 295.5,185.5C 289.355,184.51 283.022,184.177 276.5,184.5C 251.994,184.831 227.661,184.498 203.5,183.5 Z"/></g>
<g><path style="opacity:1" fill="#d39f5d" d="M 276.5,184.5 C 283.022,184.177 289.355,184.51 295.5,185.5C 290.699,190.472 286.032,195.638 281.5,201C 255.835,201.5 230.169,201.667 204.5,201.5C 223.662,200.668 242.996,200.168 262.5,200C 267.004,194.664 271.671,189.497 276.5,184.5 Z"/></g>
<g><path style="opacity:1" fill="#746764" d="M 203.5,208.5 C 226.843,208.167 250.176,208.5 273.5,209.5C 273.376,210.107 273.043,210.44 272.5,210.5C 266.355,209.51 260.022,209.177 253.5,209.5C 236.658,209.83 219.992,209.497 203.5,208.5 Z"/></g>
<g><path style="opacity:1" fill="#d7a15d" d="M 253.5,209.5 C 260.022,209.177 266.355,209.51 272.5,210.5C 267.699,215.472 263.032,220.638 258.5,226C 240.503,226.5 222.503,226.667 204.5,226.5C 215.993,225.669 227.659,225.169 239.5,225C 244.004,219.664 248.671,214.497 253.5,209.5 Z"/></g>
<g><path style="opacity:1" fill="#c2c3cc" d="M 341.5,209.5 C 336.461,214.537 331.794,219.871 327.5,225.5C 320.978,225.823 314.645,225.49 308.5,224.5C 312.996,219.836 317.33,215.002 321.5,210C 328.158,209.5 334.825,209.334 341.5,209.5 Z"/></g>
<g><path style="opacity:1" fill="#e0e0e9" d="M 341.5,209.5 C 378.5,209.5 415.5,209.5 452.5,209.5C 452.5,214.833 452.5,220.167 452.5,225.5C 410.833,225.5 369.167,225.5 327.5,225.5C 331.794,219.871 336.461,214.537 341.5,209.5 Z"/></g>
<g><path style="opacity:1" fill="#a28465" d="M 137.5,209.5 C 138.043,209.56 138.376,209.893 138.5,210.5C 132.68,211.816 127.013,211.816 121.5,210.5C 127.026,210.821 132.36,210.488 137.5,209.5 Z"/></g>
<g><path style="opacity:1" fill="#a8aab9" d="M 308.5,224.5 C 314.645,225.49 320.978,225.823 327.5,225.5C 369.167,225.5 410.833,225.5 452.5,225.5C 404.332,226.831 355.998,226.831 307.5,225.5C 307.624,224.893 307.957,224.56 308.5,224.5 Z"/></g>
<g><path style="opacity:1" fill="#d8a25c" d="M 230.5,234.5 C 236.868,234.17 243.202,234.504 249.5,235.5C 244.648,240.517 239.982,245.684 235.5,251C 228.842,251.5 222.175,251.666 215.5,251.5C 220.265,245.646 225.265,239.979 230.5,234.5 Z"/></g>
<g><path style="opacity:1" fill="#79986d" d="M 318.5,234.5 C 305.833,248.5 293.167,262.5 280.5,276.5C 274.158,276.666 267.825,276.5 261.5,276C 273.833,262.333 286.167,248.667 298.5,235C 305.158,234.5 311.825,234.334 318.5,234.5 Z"/></g>
<g><path style="opacity:1" fill="#8bae7c" d="M 318.5,234.5 C 363.167,234.5 407.833,234.5 452.5,234.5C 452.5,307.167 452.5,379.833 452.5,452.5C 341.5,452.5 230.5,452.5 119.5,452.5C 131.856,438.48 144.189,424.48 156.5,410.5C 206.834,410.667 257.168,410.5 307.5,410C 310.306,407.063 309.973,404.563 306.5,402.5C 260.002,401.667 213.335,401.167 166.5,401C 171.044,395.96 175.378,390.794 179.5,385.5C 222.168,385.667 264.835,385.5 307.5,385C 309.396,383.192 309.896,381.025 309,378.5C 308.329,377.748 307.496,377.414 306.5,377.5C 267.665,376.833 228.665,376.167 189.5,375.5C 194.229,370.776 198.563,365.776 202.5,360.5C 237.502,360.667 272.502,360.5 307.5,360C 310.14,357.379 310.14,354.879 307.5,352.5C 275.669,351.668 243.669,351.168 211.5,351C 216.534,346.301 221.2,341.301 225.5,336C 253.003,335.832 280.336,335.332 307.5,334.5C 310.14,332.121 310.14,329.621 307.5,327C 283.169,326.5 258.836,326.333 234.5,326.5C 239.329,321.503 243.996,316.336 248.5,311C 268.004,310.832 287.338,310.332 306.5,309.5C 308.722,309.441 309.722,308.275 309.5,306C 309.561,304.289 308.894,302.956 307.5,302C 290.837,301.5 274.17,301.333 257.5,301.5C 262.329,296.503 266.996,291.336 271.5,286C 283.341,285.831 295.007,285.331 306.5,284.5C 309.973,282.437 310.306,279.937 307.5,277C 298.506,276.5 289.506,276.334 280.5,276.5C 293.167,262.5 305.833,248.5 318.5,234.5 Z"/></g>
<g><path style="opacity:1" fill="#d9a25c" d="M 207.5,259.5 C 214.175,259.334 220.842,259.5 227.5,260C 214.466,273.366 201.799,287.033 189.5,301C 182.842,301.5 176.175,301.666 169.5,301.5C 182.536,287.799 195.203,273.799 207.5,259.5 Z"/></g>
<g><path style="opacity:1" fill="#474d63" d="M 349.5,276.5 C 361.505,276.333 373.505,276.5 385.5,277C 402.912,279.745 414.078,289.579 419,306.5C 421.096,320.71 417.263,333.043 407.5,343.5C 422.124,360.271 423.29,377.938 411,396.5C 404.128,404.02 395.628,408.52 385.5,410C 373.5,410.667 361.5,410.667 349.5,410C 346.272,408.437 344.105,405.937 343,402.5C 342.333,362.833 342.333,323.167 343,283.5C 344.694,280.642 346.861,278.309 349.5,276.5 Z"/></g>
<g><path style="opacity:1" fill="#79986e" d="M 306.5,284.5 C 295.007,285.331 283.341,285.831 271.5,286C 266.996,291.336 262.329,296.503 257.5,301.5C 251.158,301.666 244.825,301.5 238.5,301C 243.133,295.365 248.133,290.032 253.5,285C 271.164,284.5 288.83,284.333 306.5,284.5 Z"/></g>
<g><path style="opacity:1" fill="#87a97b" d="M 351.5,284.5 C 362.838,284.333 374.172,284.5 385.5,285C 405.027,289.879 413.527,302.379 411,322.5C 408.517,330.476 403.85,336.81 397,341.5C 396.833,342.167 396.667,342.833 396.5,343.5C 400.098,347.274 403.598,351.274 407,355.5C 415.594,373.372 411.761,387.872 395.5,399C 392.226,400.202 388.893,401.202 385.5,402C 373.924,402.82 362.424,402.654 351,401.5C 350.173,362.429 350.34,323.429 351.5,284.5 Z"/></g>
<g><path style="opacity:1" fill="#464d63" d="M 357.5,288.5 C 366.506,288.334 375.506,288.5 384.5,289C 396.015,290.848 403.515,297.348 407,308.5C 409.393,325.223 402.56,336.056 386.5,341C 376.5,341.667 366.5,341.667 356.5,341C 356,340.5 355.5,340 355,339.5C 354.333,323.5 354.333,307.5 355,291.5C 355.698,290.309 356.531,289.309 357.5,288.5 Z"/></g>
<g><path style="opacity:1" fill="#738c74" d="M 385.5,297.5 C 378.167,297.5 370.833,297.5 363.5,297.5C 363.5,309.5 363.5,321.5 363.5,333.5C 362.505,321.345 362.171,309.011 362.5,296.5C 370.352,296.175 378.018,296.508 385.5,297.5 Z"/></g>
<g><path style="opacity:1" fill="#8bae7c" d="M 385.5,297.5 C 396.635,301.086 401.135,308.753 399,320.5C 396.623,327.545 391.79,331.712 384.5,333C 377.508,333.5 370.508,333.666 363.5,333.5C 363.5,321.5 363.5,309.5 363.5,297.5C 370.833,297.5 378.167,297.5 385.5,297.5 Z"/></g>
<g><path style="opacity:1" fill="#78966d" d="M 306.5,309.5 C 287.338,310.332 268.004,310.832 248.5,311C 243.996,316.336 239.329,321.503 234.5,326.5C 228.158,326.666 221.825,326.5 215.5,326C 220.133,320.365 225.133,315.032 230.5,310C 255.831,309.5 281.164,309.333 306.5,309.5 Z"/></g>
<g><path style="opacity:1" fill="#75906e" d="M 307.5,334.5 C 280.336,335.332 253.003,335.832 225.5,336C 221.2,341.301 216.534,346.301 211.5,351C 243.669,351.168 275.669,351.668 307.5,352.5C 268.832,352.667 230.165,352.5 191.5,352C 196.467,346.031 201.801,340.365 207.5,335C 240.832,334.5 274.165,334.333 307.5,334.5 Z"/></g>
<g><path style="opacity:1" fill="#464d63" d="M 356.5,345.5 C 367.555,345.121 378.555,345.621 389.5,347C 406.749,355.073 411.582,367.907 404,385.5C 399.847,391.996 394.013,396.162 386.5,398C 376.833,398.667 367.167,398.667 357.5,398C 356.692,397.692 356.025,397.192 355.5,396.5C 354.349,380.211 354.182,363.878 355,347.5C 355.717,346.956 356.217,346.289 356.5,345.5 Z"/></g>
<g><path style="opacity:1" fill="#8aac7c" d="M 362.5,353.5 C 371.25,353.09 379.916,353.59 388.5,355C 399.494,361.166 402.327,370 397,381.5C 393.955,385.942 389.789,388.776 384.5,390C 377.174,390.5 369.841,390.666 362.5,390.5C 362.5,378.167 362.5,365.833 362.5,353.5 Z"/></g>
<g><path style="opacity:1" fill="#79976e" d="M 202.5,360.5 C 198.563,365.776 194.229,370.776 189.5,375.5C 228.665,376.167 267.665,376.833 306.5,377.5C 260.499,377.667 214.499,377.5 168.5,377C 173.732,371.857 178.732,366.524 183.5,361C 189.825,360.5 196.158,360.334 202.5,360.5 Z"/></g>
<g><path style="opacity:1" fill="#7b9a6f" d="M 179.5,385.5 C 175.378,390.794 171.044,395.96 166.5,401C 213.335,401.167 260.002,401.667 306.5,402.5C 252.832,402.667 199.166,402.5 145.5,402C 150.867,396.968 155.867,391.635 160.5,386C 166.825,385.5 173.158,385.334 179.5,385.5 Z"/></g>
<g><path style="opacity:1" fill="#79986d" d="M 156.5,410.5 C 144.189,424.48 131.856,438.48 119.5,452.5C 113.132,452.83 106.798,452.496 100.5,451.5C 113.018,438.15 125.351,424.65 137.5,411C 143.825,410.5 150.158,410.334 156.5,410.5 Z"/></g>
<g><path style="opacity:1" fill="#6c4e5f" d="M 39.5,476.5 C 47.9839,477.493 56.6506,477.826 65.5,477.5C 56.6582,478.822 47.6582,478.822 38.5,477.5C 38.6236,476.893 38.9569,476.56 39.5,476.5 Z"/></g>
</svg>
